<?xml version="1.0" encoding="UTF-8"?>
<svg width="700pt" height="700pt" version="1.1" viewBox="0 0 700 700" xmlns="http://www.w3.org/2000/svg" xmlns:xlink="http://www.w3.org/1999/xlink">
 <g>
  <path d="m350 39.199c132.72 0 240.8 108.08 240.8 240.8 0 132.72-108.08 240.8-240.8 240.8s-240.8-108.08-240.8-240.8 108.08-240.8 240.8-240.8m0-39.199c-154.56 0-280 125.44-280 280s125.44 280 280 280 280-125.44 280-280-125.44-280-280-280z"/>
  <path d="m491.68 200.48-185.92 185.92c-3.9219 3.9219-8.9609 5.6016-14.559 5.6016-5.0391 0-10.641-1.6797-14.559-5.6016l-68.324-68.32c-7.2812-7.2812-7.2812-19.602 0-26.879 3.9219-3.9219 8.3984-5.6016 13.441-5.6016 5.0391 0 10.078 1.6797 13.441 5.6016l56 56 173.6-173.6c3.9219-3.9219 8.3984-5.6016 13.441-5.6016 5.0391 0 10.078 1.6797 13.441 5.6016 7.2773 7.2773 7.2773 19.598-0.003906 26.879z"/>
 </g>
</svg>
